<?xml version="1.0" encoding="utf-8"?>
<!-- Generator: Adobe Illustrator 15.0.0, SVG Export Plug-In  -->
<!DOCTYPE svg PUBLIC "-//W3C//DTD SVG 1.1//EN" "http://www.w3.org/Graphics/SVG/1.1/DTD/svg11.dtd" [
	<!ENTITY ns_flows "http://ns.adobe.com/Flows/1.0/">
]>
<svg version="1.1"
	 xmlns="http://www.w3.org/2000/svg" xmlns:xlink="http://www.w3.org/1999/xlink" xmlns:a="http://ns.adobe.com/AdobeSVGViewerExtensions/3.0/"
	 x="0px" y="0px" width="149px" height="149px" viewBox="410.3 55.5 149 149" enable-background="new 410.3 55.5 149 149"
	 xml:space="preserve">
<defs>
</defs>
<g>
	<defs>
		<rect id="SVGID_1_" x="410.4" y="58.6" width="149" height="142.3"/>
	</defs>
	<clipPath id="SVGID_2_">
		<use xlink:href="#SVGID_1_"  overflow="visible"/>
	</clipPath>
	<g clip-path="url(#SVGID_2_)">
		<circle fill="#231F20" stroke="#231F20" stroke-width="12" stroke-miterlimit="3.8637" cx="484.5" cy="129.8" r="64.4"/>
		<path fill="#231F20" stroke="#231F20" stroke-width="12" stroke-miterlimit="3.8637" d="M484.5,129.8"/>
	</g>
	<g clip-path="url(#SVGID_2_)">
		<defs>
			<circle id="_x3C_Clipping_Path_x3E__1_" cx="484.5" cy="129.8" r="64.4"/>
		</defs>
		<defs>
			<circle id="poop_1_" cx="484.5" cy="129.8" r="64.4"/>
		</defs>
		<use xlink:href="#_x3C_Clipping_Path_x3E__1_"  display="none" overflow="visible" fill="#8A6AAD"/>
		<use xlink:href="#poop_1_"  overflow="visible" fill="#8A6AAD"/>
		<clipPath id="_x3C_Clipping_Path_x3E__2_">
			<use xlink:href="#_x3C_Clipping_Path_x3E__1_"  display="none" overflow="visible"/>
		</clipPath>
		<clipPath id="poop_2_" clip-path="url(#_x3C_Clipping_Path_x3E__2_)">
			<use xlink:href="#poop_1_"  overflow="visible"/>
		</clipPath>
		<g clip-path="url(#poop_2_)">
			<polygon fill-rule="evenodd" clip-rule="evenodd" fill="#F37721" points="845.6,3 841.5,90 460,89.6 451.9,102.3 468.2,116 
				460,135.3 497.6,136.1 513.2,149.5 508.2,164 0,161 3.1,0 			"/>
		</g>
	</g>
	<g clip-path="url(#SVGID_2_)">
		<polygon fill="#231F20" stroke="#231F20" stroke-width="12.1187" stroke-miterlimit="3.8637" points="550.4,86.6 544.2,102.6 
			468,102.6 475,108.6 522.5,108.6 510.6,139.1 525.1,151.6 516.5,173.6 419.3,173.6 425.6,157.6 501.3,157.6 494.4,151.6 
			449,151.6 460.4,122.2 444.7,108.6 453.2,86.6 		"/>
		<path fill="#FFFFFF" d="M497.5,122.6h-18.5l-5.5,14H492L497.5,122.6z M550.4,86.6l-6.2,16H468l7,6h47.4l-11.9,30.5l14.5,12.5
			l-8.6,22h-97.2l6.2-16h75.8l-6.9-6H449l11.4-29.4l-15.7-13.6l8.6-22H550.4z"/>
	</g>
</g>
</svg>
